<?xml version="1.0" encoding="UTF-8"?>
<svg id="Layer_1" data-name="Layer 1" xmlns="http://www.w3.org/2000/svg" viewBox="0 0 292 331">
  <defs>
    <style>
      .cls-1 {
        stroke-width: 0px;
      }
    </style>
  </defs>
  <path class="cls-1" d="m176.15,87.56c-32.56,0-65.12.02-97.68-.01-7,0-13.63,1.25-19.57,5.19-9.66,6.41-13.72,17.72-10.5,29.24,3.11,11.13,13.15,19.16,24.78,19.4,10.97.22,21.95.07,32.93.08,1.5,0,2.99-.03,4.49,0,17.19.29,25.3,13.24,17.66,28.73-6.85,13.87-14.17,27.51-21.29,41.25-11.03,21.27-22.06,42.54-33.13,63.79-5.72,10.98-8.23,11.66-18.87,5.58-12.12-6.93-24.3-13.77-36.41-20.71-2.81-1.61-5.57-3.33-8.18-5.25-6.64-4.89-9.95-11.16-9.91-19.81.24-45.88.18-91.76.06-137.65-.02-9.54,3.21-17.03,11.52-22.02,21.26-12.78,42.44-25.72,63.82-38.3,19.45-11.45,39.09-22.57,58.74-33.66,2.35-1.32,5.29-1.79,8.02-2.2,8.53-1.28,15.78,1.7,23.14,6.03,35.49,20.82,71.24,41.18,106.86,61.78,3.66,2.12,7.09,4.64,10.52,7.13,2.4,1.74,4.03,4.48,2.66,7.12-.94,1.81-3.54,3.19-5.67,3.84-2.31.71-4.94.43-7.43.43-32.19.02-64.37.01-96.56.01Z"/>
  <path class="cls-1" d="m291.81,142.64c0,4.21-.03,8.06,0,11.92.2,26,.44,52.01.61,78.01.08,11.58-4.73,20.58-14.78,26.41-39.37,22.83-78.75,45.65-118.24,68.26-8.31,4.76-17.19,4.21-25.6-.13-6.85-3.53-13.44-7.56-20.36-11.5.61-1.3,1.09-2.41,1.65-3.48,23.16-44.64,46.37-89.26,69.49-133.93,8.4-16.24,20.21-28.53,38.39-33.17,6.1-1.56,12.53-2.38,18.82-2.52,15.71-.36,31.44-.13,47.15-.13.73,0,1.45.12,2.86.25Z"/>
</svg>